<mxfile host="65bd71144e">
    <diagram id="7-xZZ9tDB1aXWRL7KGHH" name="Main Loop">
        <mxGraphModel dx="1745" dy="1150" grid="1" gridSize="10" guides="1" tooltips="1" connect="1" arrows="1" fold="1" page="0" pageScale="1" pageWidth="850" pageHeight="1100" math="0" shadow="0">
            <root>
                <mxCell id="0"/>
                <mxCell id="1" parent="0"/>
                <mxCell id="10" value="" style="endArrow=classic;html=1;entryX=0;entryY=0.5;entryDx=0;entryDy=0;exitX=1;exitY=0.5;exitDx=0;exitDy=0;" edge="1" parent="1" source="23" target="19">
                    <mxGeometry width="50" height="50" relative="1" as="geometry">
                        <mxPoint x="1160" y="270" as="sourcePoint"/>
                        <mxPoint x="350" y="330" as="targetPoint"/>
                        <Array as="points">
                            <mxPoint x="1320" y="270"/>
                            <mxPoint x="1320" y="200"/>
                            <mxPoint x="320" y="200"/>
                            <mxPoint x="320" y="270"/>
                        </Array>
                    </mxGeometry>
                </mxCell>
                <mxCell id="12" value="Check for user input and pass to logic controller" style="text;html=1;strokeColor=none;fillColor=none;align=left;verticalAlign=top;whiteSpace=wrap;rounded=0;" vertex="1" parent="1">
                    <mxGeometry x="360" y="320" width="120" height="50" as="geometry"/>
                </mxCell>
                <mxCell id="13" value="Change GUI selection, calculate hit/miss, etc." style="text;html=1;strokeColor=none;fillColor=none;align=left;verticalAlign=top;whiteSpace=wrap;rounded=0;" vertex="1" parent="1">
                    <mxGeometry x="760" y="320" width="120" height="50" as="geometry"/>
                </mxCell>
                <mxCell id="14" value="Draw screen, more?" style="text;html=1;strokeColor=none;fillColor=none;align=left;verticalAlign=top;whiteSpace=wrap;rounded=0;" vertex="1" parent="1">
                    <mxGeometry x="1160" y="320" width="120" height="50" as="geometry"/>
                </mxCell>
                <mxCell id="24" style="edgeStyle=orthogonalEdgeStyle;rounded=0;orthogonalLoop=1;jettySize=auto;html=1;exitX=1;exitY=0.5;exitDx=0;exitDy=0;entryX=0;entryY=0.5;entryDx=0;entryDy=0;" edge="1" parent="1" source="19" target="20">
                    <mxGeometry relative="1" as="geometry"/>
                </mxCell>
                <mxCell id="19" value="Get User Input" style="rounded=1;whiteSpace=wrap;html=1;align=center;verticalAlign=middle;" vertex="1" parent="1">
                    <mxGeometry x="360" y="240" width="120" height="60" as="geometry"/>
                </mxCell>
                <mxCell id="25" style="edgeStyle=orthogonalEdgeStyle;rounded=0;orthogonalLoop=1;jettySize=auto;html=1;exitX=1;exitY=0.5;exitDx=0;exitDy=0;entryX=0;entryY=0.5;entryDx=0;entryDy=0;" edge="1" parent="1" source="20" target="21">
                    <mxGeometry relative="1" as="geometry"/>
                </mxCell>
                <mxCell id="20" value="Get Network Input" style="rounded=1;whiteSpace=wrap;html=1;align=center;verticalAlign=middle;" vertex="1" parent="1">
                    <mxGeometry x="560" y="240" width="120" height="60" as="geometry"/>
                </mxCell>
                <mxCell id="26" style="edgeStyle=orthogonalEdgeStyle;rounded=0;orthogonalLoop=1;jettySize=auto;html=1;exitX=1;exitY=0.5;exitDx=0;exitDy=0;entryX=0;entryY=0.5;entryDx=0;entryDy=0;" edge="1" parent="1" source="21" target="22">
                    <mxGeometry relative="1" as="geometry"/>
                </mxCell>
                <mxCell id="21" value="Game Logic" style="rounded=1;whiteSpace=wrap;html=1;align=center;verticalAlign=middle;" vertex="1" parent="1">
                    <mxGeometry x="760" y="240" width="120" height="60" as="geometry"/>
                </mxCell>
                <mxCell id="27" style="edgeStyle=orthogonalEdgeStyle;rounded=0;orthogonalLoop=1;jettySize=auto;html=1;exitX=1;exitY=0.5;exitDx=0;exitDy=0;entryX=0;entryY=0.5;entryDx=0;entryDy=0;" edge="1" parent="1" source="22" target="23">
                    <mxGeometry relative="1" as="geometry"/>
                </mxCell>
                <mxCell id="22" value="Send Network Data" style="rounded=1;whiteSpace=wrap;html=1;align=center;verticalAlign=middle;" vertex="1" parent="1">
                    <mxGeometry x="960" y="240" width="120" height="60" as="geometry"/>
                </mxCell>
                <mxCell id="23" value="Update Display" style="rounded=1;whiteSpace=wrap;html=1;align=center;verticalAlign=middle;" vertex="1" parent="1">
                    <mxGeometry x="1160" y="240" width="120" height="60" as="geometry"/>
                </mxCell>
                <mxCell id="29" value="&lt;span&gt;Check for connection attempt, heartbeat, moves, disconnect&lt;/span&gt;" style="text;html=1;strokeColor=none;fillColor=none;align=left;verticalAlign=top;whiteSpace=wrap;rounded=0;" vertex="1" parent="1">
                    <mxGeometry x="560" y="320" width="120" height="50" as="geometry"/>
                </mxCell>
                <mxCell id="30" value="Send connection attempt, heartbeat, moves, disconnect" style="text;html=1;strokeColor=none;fillColor=none;align=left;verticalAlign=top;whiteSpace=wrap;rounded=0;" vertex="1" parent="1">
                    <mxGeometry x="960" y="320" width="120" height="50" as="geometry"/>
                </mxCell>
            </root>
        </mxGraphModel>
    </diagram>
</mxfile>